<?xml version="1.0" encoding="UTF-8"?>
<svg xmlns="http://www.w3.org/2000/svg" xmlns:xlink="http://www.w3.org/1999/xlink" width="390px" height="50px" viewBox="0 0 389 50" version="1.1">
<g id="surface1">
<path style=" stroke:none;fill-rule:nonzero;fill:rgb(0%,0%,0%);fill-opacity:1;" d="M 42.511719 28.265625 C 41.664062 28.742188 41.242188 29.578125 41.242188 30.777344 L 41.242188 46.460938 C 41.242188 46.503906 41.199219 46.566406 41.117188 46.648438 C 40.121094 47.394531 39.027344 48 37.867188 48.445312 C 36.683594 48.902344 35.460938 49.246094 34.214844 49.46875 C 32.964844 49.695312 31.703125 49.839844 30.4375 49.902344 C 29.175781 49.964844 27.949219 49.996094 26.75 49.996094 C 24.933594 49.996094 23.097656 49.933594 21.238281 49.808594 C 17.976562 49.558594 15.035156 48.734375 12.414062 47.328125 C 9.792969 45.925781 7.5625 44.097656 5.726562 41.84375 C 3.890625 39.589844 2.476562 37.027344 1.484375 34.15625 C 0.496094 31.285156 0 28.257812 0 25.074219 C 0 21.394531 0.660156 18.140625 1.980469 15.3125 C 3.300781 12.480469 5.109375 10.101562 7.398438 8.183594 C 9.691406 6.261719 12.363281 4.8125 15.417969 3.84375 C 18.472656 2.871094 21.734375 2.386719 25.203125 2.386719 C 27.0625 2.386719 28.929688 2.488281 30.808594 2.695312 C 32.65625 2.898438 34.503906 3.125 36.347656 3.375 C 37.175781 3.5 37.992188 3.625 38.792969 3.75 C 39.601562 3.875 40.414062 3.976562 41.242188 4.058594 C 41.40625 4.058594 41.488281 4.140625 41.488281 4.308594 C 41.40625 5.769531 41.261719 7.226562 41.054688 8.675781 C 40.847656 10.113281 40.640625 11.550781 40.4375 12.984375 C 40.394531 13.277344 40.351562 13.554688 40.3125 13.824219 C 40.269531 14.089844 40.230469 14.347656 40.1875 14.597656 C 40.1875 14.722656 40.113281 14.792969 39.972656 14.816406 C 39.824219 14.835938 39.734375 14.785156 39.691406 14.660156 C 39.363281 12.882812 38.761719 11.355469 37.898438 10.074219 C 37.027344 8.792969 35.964844 7.726562 34.707031 6.878906 C 33.449219 6.03125 32.035156 5.414062 30.464844 5.019531 C 28.894531 4.628906 27.265625 4.429688 25.574219 4.429688 C 22.726562 4.429688 20.070312 4.90625 17.617188 5.855469 C 15.160156 6.808594 13.023438 8.140625 11.207031 9.855469 C 9.390625 11.570312 7.957031 13.636719 6.902344 16.054688 C 5.851562 18.472656 5.324219 21.128906 5.324219 24.019531 C 5.324219 27.160156 5.902344 30.125 7.058594 32.914062 C 8.214844 35.707031 9.792969 38.144531 11.796875 40.230469 C 13.796875 42.320312 16.171875 43.972656 18.917969 45.191406 C 21.664062 46.410156 24.625 47.019531 27.804688 47.019531 C 29.167969 47.019531 30.550781 46.863281 31.953125 46.554688 C 33.355469 46.242188 34.554688 45.574219 35.546875 44.539062 L 35.546875 30.589844 C 35.546875 29.601562 35.234375 28.929688 34.617188 28.578125 C 33.996094 28.226562 33.292969 27.925781 32.511719 27.679688 C 32.175781 27.59375 31.84375 27.492188 31.519531 27.367188 C 31.1875 27.246094 30.859375 27.078125 30.527344 26.871094 C 30.40625 26.789062 30.363281 26.695312 30.40625 26.59375 C 30.445312 26.492188 30.527344 26.4375 30.652344 26.4375 C 33.128906 26.4375 35.574219 26.460938 37.992188 26.5 C 40.40625 26.542969 42.851562 26.625 45.328125 26.75 L 45.390625 27.246094 C 44.316406 27.449219 43.355469 27.792969 42.511719 28.265625 Z M 75.113281 44.726562 C 74.566406 44.683594 74.019531 44.640625 73.472656 44.601562 C 73.132812 44.558594 72.792969 44.527344 72.453125 44.507812 C 72.089844 44.488281 71.730469 44.476562 71.367188 44.476562 C 70.417969 44.476562 69.46875 44.519531 68.519531 44.601562 C 67.570312 44.683594 66.621094 44.765625 65.671875 44.847656 C 65.546875 44.847656 65.464844 44.789062 65.421875 44.664062 C 65.382812 44.539062 65.421875 44.4375 65.546875 44.355469 L 67.960938 43.175781 C 67.265625 41.25 66.535156 39.339844 65.765625 37.441406 C 64.988281 35.527344 64.253906 33.59375 63.566406 31.644531 L 53.96875 31.644531 C 53.664062 32.441406 53.363281 33.234375 53.070312 34.03125 C 52.664062 35.121094 52.285156 36.214844 51.925781 37.316406 C 51.574219 38.386719 51.242188 39.460938 50.933594 40.542969 C 50.644531 41.554688 50.5 42.285156 50.5 42.742188 C 50.5 43.363281 50.769531 43.765625 51.304688 43.949219 C 51.839844 44.136719 52.359375 44.269531 52.851562 44.355469 L 52.851562 44.847656 C 52.070312 44.765625 51.261719 44.695312 50.4375 44.632812 C 48.789062 44.507812 47.132812 44.507812 45.484375 44.632812 C 44.660156 44.695312 43.832031 44.765625 43.007812 44.847656 C 42.882812 44.890625 42.8125 44.828125 42.789062 44.664062 C 42.769531 44.5 42.820312 44.394531 42.945312 44.355469 C 45.214844 44.066406 46.804688 42.867188 47.714844 40.757812 L 47.714844 40.820312 C 48.910156 37.804688 50.066406 34.785156 51.179688 31.769531 C 52.300781 28.742188 53.394531 25.703125 54.464844 22.65625 C 55.207031 20.589844 55.929688 18.535156 56.632812 16.488281 C 57.339844 14.421875 58.082031 12.363281 58.859375 10.320312 C 58.902344 10.195312 58.984375 10.132812 59.109375 10.132812 C 59.230469 10.132812 59.3125 10.195312 59.355469 10.320312 C 59.558594 10.894531 59.777344 11.460938 60.003906 12.023438 C 60.234375 12.589844 60.449219 13.15625 60.65625 13.730469 C 62.363281 18.398438 64.128906 23.050781 65.953125 27.675781 C 67.792969 32.355469 69.890625 36.929688 72.238281 41.375 C 72.730469 42.328125 73.359375 43.007812 74.125 43.421875 C 74.886719 43.835938 75.765625 44.082031 76.757812 44.164062 L 76.757812 44.660156 C 76.175781 44.746094 75.628906 44.765625 75.113281 44.726562 Z M 58.796875 16.707031 C 58.113281 18.839844 57.441406 20.980469 56.785156 23.121094 C 56.117188 25.296875 55.40625 27.457031 54.648438 29.601562 L 62.636719 29.601562 Z M 121.445312 44.785156 L 116.429688 44.785156 C 114.777344 44.785156 113.148438 44.746094 111.539062 44.664062 C 111.289062 44.664062 111.207031 44.558594 111.289062 44.351562 C 111.332031 44.269531 111.359375 44.1875 111.382812 44.105469 C 111.402344 44.019531 111.433594 43.9375 111.472656 43.859375 L 111.847656 42.742188 C 111.96875 42.371094 112.03125 42.019531 112.03125 41.6875 C 112.03125 39.332031 111.917969 37.007812 111.691406 34.714844 C 111.460938 32.40625 111.203125 30.101562 110.917969 27.804688 C 110.769531 26.550781 110.613281 25.300781 110.453125 24.050781 C 110.308594 22.957031 110.195312 21.6875 110.109375 20.238281 C 108.554688 23.230469 107.046875 26.25 105.589844 29.289062 C 104.144531 32.308594 102.699219 35.367188 101.257812 38.464844 C 100.765625 39.484375 100.28125 40.507812 99.800781 41.53125 C 99.320312 42.558594 98.835938 43.582031 98.34375 44.601562 C 98.304688 44.683594 98.242188 44.726562 98.160156 44.726562 C 98.078125 44.726562 97.992188 44.683594 97.910156 44.601562 C 96.011719 41.957031 94.371094 39.261719 92.988281 36.511719 C 91.617188 33.785156 90.304688 31.023438 89.054688 28.238281 C 88.457031 26.929688 87.871094 25.617188 87.292969 24.300781 C 86.714844 22.992188 86.105469 21.703125 85.464844 20.425781 C 85.34375 21.429688 85.222656 22.429688 85.09375 23.433594 C 84.96875 24.402344 84.847656 25.363281 84.722656 26.3125 C 84.394531 28.851562 84.105469 31.394531 83.855469 33.9375 C 83.605469 36.492188 83.480469 39.058594 83.484375 41.625 C 83.484375 42.371094 83.667969 42.875 84.039062 43.144531 C 84.414062 43.414062 84.867188 43.652344 85.402344 43.859375 C 85.566406 43.941406 85.792969 44.035156 86.082031 44.136719 C 86.371094 44.242188 86.558594 44.3125 86.640625 44.351562 C 86.765625 44.4375 86.804688 44.539062 86.765625 44.664062 C 86.722656 44.785156 86.640625 44.847656 86.519531 44.847656 C 85.941406 44.847656 85.371094 44.839844 84.816406 44.816406 C 84.246094 44.796875 83.679688 44.765625 83.113281 44.726562 C 82.535156 44.683594 81.957031 44.652344 81.378906 44.632812 C 80.800781 44.613281 80.222656 44.601562 79.644531 44.601562 L 78.40625 44.601562 C 78.035156 44.601562 77.621094 44.644531 77.167969 44.726562 C 77.042969 44.769531 76.960938 44.707031 76.917969 44.539062 C 76.878906 44.375 76.917969 44.269531 77.042969 44.230469 C 77.375 44.148438 77.621094 44.105469 77.785156 44.105469 C 78.183594 44.039062 78.578125 43.945312 78.960938 43.828125 C 79.292969 43.722656 79.601562 43.445312 79.890625 42.992188 C 79.972656 42.867188 80.085938 42.332031 80.230469 41.378906 C 80.375 40.429688 80.542969 39.21875 80.726562 37.753906 C 80.914062 36.285156 81.121094 34.621094 81.347656 32.761719 C 81.578125 30.863281 81.792969 28.960938 81.996094 27.058594 C 82.203125 25.117188 82.410156 23.207031 82.617188 21.324219 C 82.820312 19.445312 83.007812 17.71875 83.171875 16.148438 C 83.335938 14.785156 83.460938 13.578125 83.546875 12.523438 C 83.628906 11.46875 83.710938 10.714844 83.792969 10.261719 C 83.792969 10.136719 83.84375 10.066406 83.949219 10.042969 C 84.050781 10.023438 84.144531 10.054688 84.226562 10.136719 C 84.722656 10.671875 85.421875 11.738281 86.332031 13.328125 C 87.238281 14.917969 88.222656 16.769531 89.273438 18.875 C 90.382812 21.101562 91.476562 23.332031 92.554688 25.570312 C 93.609375 27.757812 94.652344 29.945312 95.683594 32.140625 C 96.382812 33.589844 96.960938 34.828125 97.417969 35.863281 C 97.871094 36.894531 98.285156 37.761719 98.65625 38.464844 C 99.359375 37.046875 100.03125 35.609375 100.667969 34.15625 C 101.347656 32.605469 102.019531 31.066406 102.679688 29.539062 C 104.15625 26.125 105.683594 22.738281 107.261719 19.371094 C 108.871094 15.941406 110.585938 12.882812 112.402344 10.199219 C 112.484375 10.113281 112.566406 10.085938 112.648438 10.105469 C 112.734375 10.125 112.773438 10.199219 112.773438 10.320312 C 112.855469 10.816406 112.929688 11.511719 112.992188 12.398438 C 113.054688 13.289062 113.144531 14.308594 113.269531 15.46875 C 113.394531 16.996094 113.546875 18.671875 113.734375 20.488281 C 113.917969 22.308594 114.117188 24.167969 114.324219 26.066406 C 114.527344 27.96875 114.734375 29.816406 114.941406 31.613281 C 115.128906 33.261719 115.34375 34.90625 115.589844 36.542969 C 115.816406 38.03125 116.035156 39.28125 116.242188 40.292969 C 116.449219 41.308594 116.65625 41.9375 116.863281 42.183594 C 117.316406 42.847656 117.75 43.269531 118.160156 43.457031 C 118.574219 43.640625 119.070312 43.777344 119.648438 43.859375 C 119.9375 43.941406 120.238281 43.992188 120.546875 44.015625 C 120.855469 44.035156 121.175781 44.128906 121.507812 44.292969 Z M 141.300781 41.65625 C 141.175781 42.574219 141.050781 43.496094 140.929688 44.414062 C 140.929688 44.539062 140.847656 44.601562 140.683594 44.601562 L 140.621094 44.664062 C 140.289062 44.785156 140.023438 44.847656 139.816406 44.847656 C 138.867188 44.847656 137.90625 44.839844 136.9375 44.816406 C 135.976562 44.796875 135.019531 44.789062 134.058594 44.785156 C 133.230469 44.785156 132.425781 44.777344 131.644531 44.757812 C 130.835938 44.734375 130.03125 44.726562 129.226562 44.726562 C 128.113281 44.726562 126.988281 44.734375 125.851562 44.757812 C 124.714844 44.777344 123.59375 44.808594 122.476562 44.847656 L 122.476562 44.351562 C 123.097656 44.351562 123.601562 44.21875 123.996094 43.949219 C 124.378906 43.691406 124.6875 43.339844 124.894531 42.925781 C 125.097656 42.515625 125.234375 42.050781 125.296875 41.53125 C 125.355469 41.015625 125.386719 40.488281 125.386719 39.953125 L 125.386719 14.164062 C 125.386719 13.339844 125.191406 12.800781 124.800781 12.554688 C 124.398438 12.300781 123.972656 12.09375 123.53125 11.933594 L 122.695312 11.652344 C 122.382812 11.550781 122.0625 11.394531 121.734375 11.1875 C 121.652344 11.105469 121.621094 11.011719 121.640625 10.910156 C 121.660156 10.808594 121.734375 10.753906 121.859375 10.753906 L 139.507812 10.753906 C 139.675781 10.671875 139.851562 10.597656 140.035156 10.539062 C 140.21875 10.476562 140.394531 10.40625 140.558594 10.320312 C 140.765625 10.238281 140.867188 10.320312 140.867188 10.570312 C 140.753906 11.578125 140.601562 12.578125 140.40625 13.574219 C 140.21875 14.503906 140.023438 15.445312 139.816406 16.394531 C 139.773438 16.519531 139.679688 16.570312 139.539062 16.550781 C 139.390625 16.53125 139.320312 16.457031 139.320312 16.332031 C 139.238281 14.886719 138.742188 13.9375 137.835938 13.480469 C 136.925781 13.027344 135.8125 12.800781 134.492188 12.800781 L 129.597656 12.800781 L 129.597656 25.507812 L 136.78125 25.507812 C 136.988281 25.507812 137.253906 25.445312 137.585938 25.320312 C 137.917969 25.199219 138.246094 25.074219 138.578125 24.949219 C 139.007812 24.710938 139.464844 24.523438 139.941406 24.390625 C 140.144531 24.308594 140.25 24.390625 140.25 24.640625 C 140.207031 25.136719 140.15625 25.671875 140.09375 26.25 C 140.039062 26.789062 139.964844 27.328125 139.878906 27.863281 C 139.792969 28.375 139.730469 28.894531 139.691406 29.414062 C 139.652344 29.933594 139.589844 30.449219 139.503906 30.960938 C 139.503906 31.085938 139.453125 31.171875 139.351562 31.210938 C 139.246094 31.253906 139.15625 31.230469 139.074219 31.148438 C 138.867188 30.941406 138.730469 30.734375 138.671875 30.527344 C 138.601562 30.300781 138.527344 30.074219 138.453125 29.847656 C 138.371094 29.597656 138.289062 29.351562 138.207031 29.101562 C 138.121094 28.855469 137.976562 28.628906 137.773438 28.421875 C 137.5625 28.214844 137.183594 28.0625 136.625 27.957031 C 136.03125 27.847656 135.433594 27.765625 134.832031 27.707031 C 134.203125 27.648438 133.570312 27.617188 132.941406 27.617188 L 129.660156 27.617188 L 129.660156 40.386719 C 130.277344 41.296875 131.15625 41.988281 132.289062 42.464844 C 133.425781 42.9375 134.53125 43.175781 135.601562 43.175781 C 137.046875 43.175781 138.277344 42.792969 139.289062 42.027344 C 140.300781 41.265625 140.96875 40.179688 141.300781 38.773438 L 141.796875 38.898438 C 141.597656 39.8125 141.433594 40.730469 141.300781 41.65625 Z M 179.0625 23.050781 C 179.039062 23.125 178.984375 23.152344 178.902344 23.140625 C 178.820312 23.128906 178.777344 23.085938 178.777344 23.015625 C 178.777344 22.234375 178.566406 21.683594 178.140625 21.363281 C 177.714844 21.042969 177.121094 20.882812 176.363281 20.882812 C 176.03125 20.882812 175.71875 20.902344 175.421875 20.9375 C 175.125 20.972656 174.8125 21.011719 174.480469 21.0625 C 174.242188 21.109375 173.980469 21.144531 173.699219 21.167969 C 173.414062 21.191406 173.152344 21.203125 172.917969 21.203125 L 172.917969 28.175781 L 177.710938 28.175781 C 177.878906 28.175781 178.066406 28.101562 178.28125 27.960938 C 178.492188 27.820312 178.660156 27.675781 178.777344 27.535156 C 178.824219 27.488281 178.878906 27.476562 178.9375 27.5 C 178.996094 27.523438 179.027344 27.570312 179.027344 27.640625 C 178.9375 28.917969 178.769531 30.1875 178.527344 31.445312 C 178.503906 31.515625 178.453125 31.546875 178.367188 31.535156 C 178.285156 31.523438 178.246094 31.480469 178.246094 31.410156 C 178.269531 30.628906 178.070312 30.089844 177.660156 29.792969 C 177.242188 29.496094 176.65625 29.347656 175.898438 29.347656 L 172.914062 29.347656 L 172.914062 36.460938 C 172.914062 36.746094 172.972656 37.039062 173.09375 37.351562 C 173.210938 37.65625 173.378906 37.929688 173.589844 38.167969 C 173.804688 38.40625 174.050781 38.59375 174.335938 38.738281 C 174.621094 38.878906 174.929688 38.949219 175.257812 38.949219 L 175.257812 39.234375 L 175.011719 39.234375 C 174.75 39.234375 174.5 39.222656 174.265625 39.199219 C 174.027344 39.175781 173.777344 39.152344 173.519531 39.128906 C 173.269531 39.105469 173.023438 39.085938 172.773438 39.074219 C 172.535156 39.0625 172.300781 39.054688 172.0625 39.054688 C 171.828125 39.054688 171.589844 39.066406 171.351562 39.09375 L 170.644531 39.164062 C 170.097656 39.210938 169.554688 39.234375 169.007812 39.234375 L 168.796875 39.234375 C 168.726562 39.234375 168.683594 39.191406 168.671875 39.109375 C 168.660156 39.027344 168.6875 38.972656 168.761719 38.949219 C 169.1875 38.878906 169.519531 38.789062 169.753906 38.683594 C 169.992188 38.574219 170.164062 38.433594 170.269531 38.257812 C 170.375 38.078125 170.433594 37.855469 170.449219 37.578125 C 170.457031 37.308594 170.464844 36.957031 170.464844 36.53125 L 170.464844 21.664062 C 170.464844 21.121094 170.359375 20.78125 170.144531 20.652344 C 169.914062 20.515625 169.664062 20.414062 169.398438 20.351562 C 169.253906 20.292969 169.105469 20.238281 168.957031 20.191406 C 168.761719 20.125 168.578125 20.035156 168.40625 19.921875 C 168.335938 19.875 168.308594 19.824219 168.335938 19.761719 C 168.359375 19.703125 168.40625 19.675781 168.476562 19.675781 C 169.96875 19.746094 171.472656 19.78125 172.988281 19.78125 L 175.511719 19.78125 C 175.628906 19.78125 175.753906 19.789062 175.882812 19.800781 C 176.011719 19.8125 176.148438 19.816406 176.292969 19.816406 C 176.835938 19.839844 177.398438 19.839844 177.980469 19.816406 C 178.558594 19.792969 179.0625 19.664062 179.488281 19.425781 C 179.535156 19.378906 179.589844 19.378906 179.648438 19.425781 C 179.707031 19.472656 179.726562 19.53125 179.703125 19.601562 Z M 179.0625 23.050781 "/>
<path style=" stroke:none;fill-rule:nonzero;fill:rgb(0%,0%,0%);fill-opacity:1;" d="M 372.882812 5.550781 C 372.839844 7.007812 372.644531 8.320312 372.296875 9.492188 C 372.253906 9.625 372.167969 9.6875 372.035156 9.6875 C 371.90625 9.6875 371.820312 9.625 371.777344 9.492188 C 371.558594 8.40625 371.222656 7.527344 370.765625 6.855469 C 370.324219 6.195312 369.734375 5.648438 369.042969 5.257812 C 368.347656 4.867188 367.566406 4.597656 366.699219 4.445312 C 365.796875 4.289062 364.878906 4.214844 363.964844 4.214844 L 198.824219 4.214844 L 198.824219 42.269531 C 198.824219 44.007812 199.378906 45.484375 200.484375 46.703125 C 201.589844 47.917969 202.96875 48.65625 204.617188 48.917969 C 204.746094 48.960938 204.800781 49.058594 204.78125 49.210938 C 204.757812 49.363281 204.683594 49.4375 204.554688 49.4375 C 203.023438 49.304688 201.496094 49.199219 199.964844 49.113281 C 198.421875 49.023438 196.871094 48.980469 195.308594 48.980469 C 194.179688 48.980469 193.066406 49.011719 191.957031 49.078125 C 190.851562 49.144531 189.734375 49.222656 188.605469 49.308594 C 188.476562 49.308594 188.398438 49.230469 188.378906 49.078125 C 188.355469 48.925781 188.410156 48.828125 188.539062 48.785156 C 189.582031 48.570312 190.394531 48.328125 190.980469 48.070312 C 191.566406 47.808594 192 47.460938 192.285156 47.027344 C 192.566406 46.59375 192.738281 46.039062 192.804688 45.363281 C 192.871094 44.691406 192.902344 43.832031 192.902344 42.789062 L 192.902344 4.28125 L 182.164062 4.28125 C 180.773438 4.28125 179.546875 4.769531 178.484375 5.746094 C 177.421875 6.722656 176.628906 7.820312 176.109375 9.035156 C 176.019531 9.167969 175.921875 9.222656 175.816406 9.199219 C 175.707031 9.179688 175.652344 9.101562 175.652344 8.972656 C 175.566406 8.539062 175.523438 8.148438 175.523438 7.796875 C 175.523438 6.929688 175.632812 6.082031 175.847656 5.257812 C 176.1875 3.976562 176.558594 2.707031 176.957031 1.445312 C 177.085938 1.035156 177.195312 0.632812 177.28125 0.238281 C 177.367188 -0.0195312 177.496094 -0.0625 177.671875 0.109375 C 178.582031 0.675781 179.472656 1.035156 180.339844 1.183594 C 181.207031 1.335938 182.207031 1.414062 183.335938 1.414062 L 368.847656 1.414062 C 369.195312 1.414062 369.574219 1.359375 369.988281 1.25 C 370.398438 1.140625 370.777344 1.042969 371.125 0.957031 C 371.375 0.910156 371.625 0.867188 371.875 0.828125 C 372.15625 0.785156 372.449219 0.738281 372.753906 0.695312 C 372.882812 0.695312 372.949219 0.785156 372.949219 0.957031 L 372.949219 1.476562 C 372.945312 2.835938 372.921875 4.195312 372.882812 5.550781 Z M 372.882812 5.550781 "/>
<path style=" stroke:none;fill-rule:nonzero;fill:rgb(0%,0%,0%);fill-opacity:1;" d="M 238.710938 44.972656 C 236.546875 44.847656 234.378906 44.789062 232.210938 44.785156 C 231.425781 44.785156 230.652344 44.796875 229.886719 44.816406 C 229.125 44.839844 228.328125 44.871094 227.503906 44.910156 C 227.378906 44.910156 227.308594 44.839844 227.285156 44.695312 C 227.265625 44.550781 227.316406 44.457031 227.441406 44.414062 C 228.71875 44.042969 229.546875 43.546875 229.917969 42.925781 C 230.289062 42.308594 230.476562 41.335938 230.476562 40.011719 L 230.476562 27.121094 L 211.464844 27.121094 L 211.464844 40.136719 C 211.464844 42.742188 212.808594 44.167969 215.492188 44.414062 C 215.617188 44.414062 215.675781 44.5 215.675781 44.664062 C 215.675781 44.828125 215.617188 44.910156 215.492188 44.910156 L 213.570312 44.910156 C 212.992188 44.910156 212.375 44.933594 211.714844 44.972656 C 211.257812 44.972656 210.734375 44.984375 210.132812 45.003906 C 209.535156 45.023438 209.007812 45.035156 208.554688 45.035156 L 207.007812 45.035156 C 206.472656 45.035156 205.933594 45.015625 205.398438 44.972656 C 205.234375 44.972656 205.035156 44.964844 204.808594 44.941406 C 204.613281 44.921875 204.417969 44.914062 204.222656 44.910156 C 204.097656 44.910156 204.023438 44.839844 204.003906 44.695312 C 203.984375 44.550781 204.035156 44.457031 204.160156 44.414062 C 204.820312 44.289062 205.355469 44.15625 205.769531 44.011719 C 206.179688 43.867188 206.492188 43.660156 206.699219 43.390625 C 206.90625 43.125 207.039062 42.78125 207.101562 42.371094 C 207.160156 41.957031 207.191406 41.417969 207.191406 40.757812 L 207.191406 14.351562 C 207.191406 13.441406 206.832031 12.761719 206.109375 12.304688 C 205.386719 11.851562 204.613281 11.601562 203.785156 11.5625 L 203.785156 11.066406 C 205.519531 11.191406 207.234375 11.25 208.925781 11.25 C 209.628906 11.25 210.328125 11.242188 211.03125 11.21875 C 211.734375 11.199219 212.4375 11.191406 213.136719 11.191406 L 214.4375 11.191406 C 214.5625 11.191406 214.625 11.273438 214.625 11.4375 C 214.625 11.605469 214.5625 11.6875 214.4375 11.6875 C 213.695312 11.6875 213.023438 11.914062 212.425781 12.367188 C 211.828125 12.824219 211.527344 13.464844 211.527344 14.289062 L 211.527344 25.074219 L 230.476562 25.074219 L 230.476562 14.539062 C 230.476562 13.542969 230.21875 12.914062 229.703125 12.644531 C 229.1875 12.378906 228.558594 12.140625 227.816406 11.933594 C 227.660156 11.894531 227.503906 11.855469 227.351562 11.808594 C 227.195312 11.765625 227.039062 11.722656 226.886719 11.683594 C 226.761719 11.644531 226.710938 11.550781 226.730469 11.40625 C 226.75 11.261719 226.824219 11.1875 226.949219 11.1875 C 229.699219 11.363281 232.457031 11.414062 235.214844 11.34375 C 236.058594 11.324219 236.894531 11.292969 237.722656 11.25 C 237.847656 11.25 237.917969 11.324219 237.941406 11.46875 C 237.960938 11.613281 237.910156 11.707031 237.785156 11.746094 C 236.875 11.914062 236.152344 12.148438 235.617188 12.460938 C 235.082031 12.769531 234.8125 13.441406 234.8125 14.472656 L 234.8125 39.890625 C 234.8125 41.296875 235.121094 42.347656 235.742188 43.050781 C 236.359375 43.753906 237.371094 44.230469 238.777344 44.476562 Z M 271.921875 45.4375 C 271.183594 45.621094 270.425781 45.714844 269.664062 45.71875 C 268.425781 45.71875 267.308594 45.492188 266.320312 45.035156 C 265.328125 44.582031 264.441406 44.003906 263.65625 43.300781 C 262.871094 42.597656 262.140625 41.789062 261.460938 40.882812 C 260.777344 39.972656 260.128906 39.042969 259.507812 38.09375 C 258.925781 37.21875 258.316406 36.359375 257.683594 35.519531 C 257.042969 34.671875 256.339844 33.910156 255.578125 33.226562 C 254.8125 32.542969 253.988281 31.996094 253.101562 31.582031 C 252.210938 31.171875 251.210938 30.964844 250.097656 30.964844 L 249.105469 30.964844 C 248.816406 30.964844 248.507812 31.003906 248.175781 31.085938 L 248.175781 39.890625 C 248.175781 41.089844 248.539062 42.113281 249.261719 42.957031 C 249.980469 43.804688 250.941406 44.289062 252.140625 44.414062 L 252.140625 44.910156 C 251.199219 44.828125 250.261719 44.757812 249.320312 44.695312 C 248.382812 44.632812 247.445312 44.601562 246.503906 44.601562 C 245.554688 44.601562 244.636719 44.644531 243.75 44.726562 C 242.859375 44.808594 241.941406 44.910156 240.992188 45.035156 C 240.867188 45.078125 240.777344 45.027344 240.714844 44.878906 C 240.652344 44.734375 240.683594 44.621094 240.808594 44.539062 C 241.671875 44.125 242.394531 43.507812 242.972656 42.679688 C 243.550781 41.851562 243.839844 40.964844 243.839844 40.011719 L 243.839844 15.28125 C 243.839844 14.328125 243.5 13.492188 242.820312 12.769531 C 242.136719 12.046875 241.324219 11.558594 240.375 11.3125 C 240.25 11.269531 240.199219 11.179688 240.21875 11.035156 C 240.238281 10.890625 240.3125 10.816406 240.433594 10.816406 L 252.632812 10.816406 C 253.914062 10.816406 255.175781 10.972656 256.414062 11.28125 C 257.652344 11.589844 258.742188 12.078125 259.695312 12.738281 C 260.644531 13.398438 261.40625 14.265625 261.984375 15.339844 C 262.5625 16.417969 262.851562 17.695312 262.851562 19.183594 C 262.851562 21.167969 262.304688 23.050781 261.210938 24.824219 C 260.117188 26.601562 258.886719 28.132812 257.527344 29.414062 C 257.980469 29.910156 258.476562 30.539062 259.011719 31.304688 C 259.578125 32.109375 260.15625 32.90625 260.746094 33.691406 C 261.6875 34.976562 262.648438 36.246094 263.625 37.503906 C 264.636719 38.804688 265.699219 39.984375 266.816406 41.035156 C 267.929688 42.089844 269.085938 42.917969 270.28125 43.515625 C 271.480469 44.117188 272.699219 44.332031 273.9375 44.167969 L 274.121094 44.664062 C 273.417969 44.996094 272.679688 45.253906 271.921875 45.4375 Z M 257.992188 18.253906 C 257.679688 17.179688 257.214844 16.210938 256.597656 15.34375 C 255.984375 14.480469 255.207031 13.753906 254.304688 13.203125 C 253.398438 12.644531 252.34375 12.367188 251.148438 12.367188 C 250.652344 12.367188 250.15625 12.398438 249.660156 12.460938 C 249.167969 12.519531 248.6875 12.65625 248.234375 12.863281 L 248.234375 28.296875 C 248.9375 28.421875 249.621094 28.503906 250.28125 28.546875 C 250.960938 28.585938 251.640625 28.609375 252.324219 28.605469 C 254.632812 28.605469 256.234375 27.976562 257.121094 26.714844 C 258.007812 25.457031 258.453125 23.710938 258.453125 21.476562 C 258.453125 20.40625 258.300781 19.332031 257.992188 18.253906 Z M 303.375 35.582031 C 302.40625 37.628906 301.117188 39.394531 299.503906 40.882812 C 297.894531 42.371094 296.027344 43.527344 293.902344 44.351562 C 291.773438 45.179688 289.535156 45.59375 287.183594 45.59375 C 285.242188 45.59375 283.230469 45.117188 281.144531 44.167969 C 279.0625 43.21875 277.132812 41.964844 275.417969 40.449219 C 273.683594 38.921875 272.246094 37.183594 271.113281 35.242188 C 269.976562 33.296875 269.410156 31.335938 269.410156 29.351562 C 269.410156 26.335938 269.6875 23.742188 270.246094 21.570312 C 270.804688 19.402344 271.699219 17.5625 272.9375 16.054688 C 274.179688 14.546875 275.808594 13.308594 277.832031 12.335938 C 279.855469 11.363281 282.332031 10.570312 285.261719 9.949219 L 286.066406 9.886719 C 288.710938 9.679688 291.164062 10.0625 293.4375 11.03125 C 295.707031 12.003906 297.6875 13.367188 299.382812 15.125 C 301.074219 16.882812 302.40625 18.957031 303.375 21.355469 C 304.347656 23.75 304.832031 26.273438 304.832031 28.917969 C 304.832031 31.316406 304.34375 33.535156 303.375 35.582031 Z M 286.566406 11.933594 C 286.050781 11.945312 285.535156 11.976562 285.023438 12.039062 L 285.023438 43.332031 C 285.523438 43.441406 286.035156 43.515625 286.566406 43.558594 Z M 290.257812 43.398438 C 291.359375 43.203125 292.378906 42.871094 293.3125 42.402344 C 294.921875 41.59375 296.273438 40.519531 297.371094 39.175781 C 298.460938 37.835938 299.289062 36.273438 299.847656 34.496094 C 300.402344 32.71875 300.683594 30.839844 300.683594 28.855469 C 300.683594 26.832031 300.382812 24.808594 299.785156 22.78125 C 299.1875 20.757812 298.296875 18.9375 297.121094 17.324219 C 295.945312 15.714844 294.5 14.414062 292.789062 13.421875 C 291.992188 12.960938 291.140625 12.605469 290.257812 12.367188 Z M 289.183594 12.125 C 288.671875 12.035156 288.15625 11.980469 287.640625 11.953125 L 287.640625 43.609375 L 287.738281 43.609375 C 288.234375 43.609375 288.714844 43.585938 289.183594 43.542969 Z M 283.957031 12.207031 C 283 12.398438 282.101562 12.6875 281.269531 13.078125 C 279.636719 13.84375 278.265625 14.898438 277.148438 16.242188 C 276.035156 17.585938 275.179688 19.132812 274.578125 20.890625 C 273.980469 22.648438 273.683594 24.515625 273.683594 26.5 C 273.683594 28.566406 273.992188 30.613281 274.609375 32.636719 C 275.230469 34.664062 276.148438 36.492188 277.367188 38.121094 C 278.585938 39.757812 280.0625 41.078125 281.792969 42.089844 C 282.480469 42.488281 283.203125 42.8125 283.960938 43.050781 Z M 341.566406 11.53125 C 341.546875 11.507812 341.492188 11.519531 341.410156 11.5625 C 340.792969 11.738281 340.183594 11.945312 339.585938 12.179688 C 338.945312 12.429688 338.625 12.863281 338.625 13.484375 L 338.6875 28.421875 L 338.6875 30.964844 C 338.6875 33.332031 338.644531 35.695312 338.5625 38.0625 C 338.480469 40.410156 338.335938 42.757812 338.128906 45.097656 C 338.128906 45.179688 338.078125 45.253906 337.972656 45.316406 C 337.871094 45.375 337.777344 45.367188 337.695312 45.285156 C 335.714844 43.589844 333.734375 41.761719 331.75 39.796875 C 329.761719 37.828125 327.8125 35.824219 325.898438 33.785156 C 323.984375 31.742188 322.09375 29.675781 320.234375 27.585938 C 318.4375 25.570312 316.660156 23.535156 314.90625 21.480469 C 314.371094 20.910156 313.855469 20.320312 313.359375 19.714844 C 312.863281 19.109375 312.347656 18.519531 311.8125 17.945312 C 311.691406 19.015625 311.628906 20.09375 311.625 21.171875 C 311.625 22.742188 311.644531 24.3125 311.6875 25.882812 C 311.726562 27.453125 311.789062 29.023438 311.871094 30.59375 C 312.039062 33.75 312.121094 36.914062 312.121094 40.078125 C 312.121094 40.78125 312.183594 41.347656 312.304688 41.78125 C 312.429688 42.214844 312.585938 42.558594 312.769531 42.804688 C 312.957031 43.054688 313.183594 43.230469 313.453125 43.332031 C 313.71875 43.433594 314 43.507812 314.289062 43.546875 C 314.617188 43.632812 314.949219 43.722656 315.28125 43.828125 C 315.609375 43.929688 316 44.148438 316.457031 44.476562 C 316.539062 44.5625 316.566406 44.652344 316.546875 44.757812 C 316.527344 44.859375 316.457031 44.910156 316.332031 44.910156 C 315.917969 44.871094 315.515625 44.832031 315.125 44.789062 C 314.730469 44.746094 314.328125 44.707031 313.914062 44.664062 C 313.328125 44.582031 312.742188 44.519531 312.148438 44.476562 C 311.5625 44.4375 310.972656 44.414062 310.386719 44.414062 C 309.617188 44.417969 308.855469 44.46875 308.09375 44.570312 C 307.308594 44.675781 306.523438 44.789062 305.742188 44.910156 C 305.617188 44.953125 305.523438 44.910156 305.460938 44.789062 C 305.402344 44.664062 305.410156 44.5625 305.492188 44.476562 C 305.824219 44.1875 306.121094 43.960938 306.390625 43.796875 C 306.644531 43.640625 306.902344 43.496094 307.164062 43.363281 C 307.660156 43.113281 308.105469 42.773438 308.496094 42.339844 C 308.890625 41.90625 309.085938 41.214844 309.085938 40.261719 L 309.085938 11.25 L 309.582031 10.257812 C 309.621094 10.175781 309.683594 10.113281 309.765625 10.074219 C 309.847656 10.03125 309.910156 10.050781 309.953125 10.136719 C 314.347656 14.695312 318.703125 19.292969 323.019531 23.925781 C 327.335938 28.566406 331.609375 33.25 335.835938 37.96875 L 335.835938 37.78125 C 335.835938 35.882812 335.828125 34 335.804688 32.140625 C 335.785156 30.28125 335.753906 28.382812 335.714844 26.4375 C 335.671875 24.660156 335.628906 22.773438 335.589844 20.765625 C 335.546875 18.761719 335.527344 16.871094 335.527344 15.09375 C 335.527344 14.394531 335.453125 13.824219 335.3125 13.390625 C 335.167969 12.957031 334.96875 12.625 334.722656 12.398438 C 334.476562 12.171875 334.207031 12.015625 333.917969 11.933594 C 333.632812 11.851562 333.34375 11.789062 333.050781 11.746094 C 332.75 11.710938 332.449219 11.660156 332.152344 11.589844 C 331.882812 11.527344 331.632812 11.390625 331.441406 11.1875 C 331.359375 11.105469 331.347656 11.003906 331.410156 10.878906 C 331.472656 10.753906 331.542969 10.714844 331.625 10.753906 C 332.574219 10.878906 333.460938 10.941406 334.289062 10.941406 L 336.890625 10.941406 C 337.425781 10.941406 337.972656 10.933594 338.53125 10.910156 C 339.097656 10.890625 339.667969 10.902344 340.234375 10.941406 C 340.441406 10.941406 340.667969 10.953125 340.914062 10.972656 C 341.140625 10.992188 341.367188 11.003906 341.597656 11.003906 L 341.722656 11.5 C 341.636719 11.539062 341.585938 11.550781 341.566406 11.53125 Z M 365.011719 41.65625 C 364.882812 42.574219 364.761719 43.496094 364.640625 44.414062 C 364.640625 44.539062 364.558594 44.601562 364.394531 44.601562 L 364.332031 44.664062 C 364 44.785156 363.730469 44.847656 363.527344 44.847656 C 362.574219 44.847656 361.617188 44.839844 360.644531 44.816406 C 359.6875 44.796875 358.726562 44.789062 357.765625 44.785156 C 356.941406 44.785156 356.136719 44.777344 355.351562 44.757812 C 354.546875 44.734375 353.742188 44.726562 352.9375 44.726562 C 351.824219 44.726562 350.695312 44.734375 349.5625 44.757812 C 348.425781 44.777344 347.300781 44.808594 346.1875 44.847656 L 346.1875 44.351562 C 346.804688 44.351562 347.3125 44.21875 347.703125 43.949219 C 348.085938 43.691406 348.394531 43.339844 348.601562 42.925781 C 348.808594 42.515625 348.941406 42.050781 349.003906 41.53125 C 349.066406 41.015625 349.097656 40.488281 349.097656 39.953125 L 349.097656 14.164062 C 349.097656 13.339844 348.902344 12.800781 348.507812 12.554688 C 348.109375 12.300781 347.683594 12.09375 347.238281 11.933594 L 346.402344 11.652344 C 346.09375 11.550781 345.773438 11.394531 345.445312 11.1875 C 345.359375 11.105469 345.328125 11.011719 345.351562 10.910156 C 345.371094 10.808594 345.445312 10.753906 345.566406 10.753906 L 363.214844 10.753906 C 363.378906 10.671875 363.558594 10.601562 363.742188 10.539062 C 363.921875 10.476562 364.097656 10.40625 364.269531 10.320312 C 364.476562 10.238281 364.578125 10.320312 364.578125 10.570312 C 364.464844 11.578125 364.308594 12.578125 364.113281 13.574219 C 363.925781 14.503906 363.730469 15.445312 363.523438 16.394531 C 363.484375 16.519531 363.390625 16.570312 363.246094 16.550781 C 363.101562 16.53125 363.03125 16.457031 363.03125 16.332031 C 362.945312 14.886719 362.449219 13.9375 361.542969 13.480469 C 360.632812 13.027344 359.519531 12.800781 358.199219 12.800781 L 353.308594 12.800781 L 353.308594 25.507812 L 360.488281 25.507812 C 360.695312 25.507812 360.964844 25.445312 361.296875 25.320312 L 362.285156 24.949219 C 362.71875 24.710938 363.175781 24.523438 363.648438 24.390625 C 363.855469 24.308594 363.957031 24.390625 363.957031 24.640625 C 363.914062 25.136719 363.863281 25.671875 363.804688 26.25 C 363.746094 26.789062 363.671875 27.328125 363.585938 27.863281 C 363.5 28.375 363.4375 28.894531 363.402344 29.414062 C 363.359375 29.933594 363.296875 30.449219 363.214844 30.960938 C 363.214844 31.085938 363.164062 31.171875 363.058594 31.210938 C 362.957031 31.253906 362.863281 31.230469 362.78125 31.148438 C 362.574219 30.941406 362.441406 30.734375 362.378906 30.527344 C 362.308594 30.300781 362.238281 30.074219 362.160156 29.847656 C 362.078125 29.597656 361.996094 29.351562 361.914062 29.101562 C 361.832031 28.855469 361.6875 28.628906 361.480469 28.421875 C 361.273438 28.214844 360.890625 28.0625 360.335938 27.957031 C 359.738281 27.847656 359.140625 27.765625 358.539062 27.707031 C 357.910156 27.648438 357.28125 27.617188 356.652344 27.617188 L 353.367188 27.617188 L 353.367188 40.386719 C 353.988281 41.296875 354.863281 41.988281 356 42.464844 C 357.136719 42.9375 358.238281 43.175781 359.3125 43.175781 C 360.757812 43.175781 361.984375 42.792969 362.996094 42.027344 C 364.007812 41.265625 364.679688 40.179688 365.007812 38.773438 L 365.503906 38.898438 C 365.304688 39.8125 365.140625 40.730469 365.011719 41.65625 Z M 387.855469 39.828125 C 387.089844 41.027344 386.121094 42.050781 384.945312 42.898438 C 383.765625 43.742188 382.464844 44.40625 381.042969 44.878906 C 379.617188 45.355469 378.265625 45.59375 376.984375 45.59375 C 376.367188 45.59375 375.714844 45.519531 375.035156 45.375 C 374.355469 45.230469 373.734375 44.996094 373.175781 44.664062 C 372.621094 44.332031 372.164062 43.910156 371.816406 43.390625 C 371.464844 42.875 371.289062 42.226562 371.289062 41.441406 C 371.289062 40.945312 371.339844 40.445312 371.445312 39.953125 C 371.546875 39.457031 371.640625 38.980469 371.722656 38.523438 L 372.03125 37.039062 C 372.03125 36.914062 372.113281 36.851562 372.28125 36.851562 C 372.445312 36.851562 372.527344 36.914062 372.527344 37.039062 L 372.527344 37.96875 C 372.527344 38.835938 372.714844 39.601562 373.085938 40.261719 C 373.449219 40.914062 373.929688 41.492188 374.507812 41.964844 C 375.085938 42.441406 375.757812 42.792969 376.519531 43.019531 C 377.285156 43.246094 378.058594 43.359375 378.84375 43.359375 C 379.585938 43.359375 380.351562 43.238281 381.136719 42.988281 C 381.902344 42.75 382.625 42.382812 383.273438 41.90625 C 383.90625 41.433594 384.441406 40.84375 384.851562 40.167969 C 385.261719 39.488281 385.46875 38.734375 385.46875 37.90625 C 385.46875 37.121094 385.285156 36.347656 384.914062 35.582031 C 384.539062 34.816406 384.046875 34.042969 383.425781 33.257812 C 382.769531 32.433594 382.066406 31.644531 381.320312 30.902344 C 380.523438 30.105469 379.71875 29.320312 378.90625 28.546875 C 378.035156 27.714844 377.167969 26.878906 376.304688 26.035156 C 375.4375 25.1875 374.671875 24.320312 374.011719 23.429688 C 373.351562 22.542969 372.816406 21.644531 372.402344 20.734375 C 371.992188 19.824219 371.785156 18.898438 371.785156 17.945312 C 371.785156 16.542969 372.175781 15.332031 372.960938 14.320312 C 373.742188 13.308594 374.714844 12.480469 375.871094 11.839844 C 377.027344 11.199219 378.285156 10.722656 379.648438 10.414062 C 381.011719 10.105469 382.269531 9.949219 383.425781 9.949219 C 385.078125 9.949219 386.585938 10.15625 387.945312 10.566406 C 388.070312 10.652344 388.132812 10.734375 388.132812 10.816406 C 387.960938 12.910156 387.710938 15 387.390625 17.078125 C 387.347656 17.199219 387.265625 17.261719 387.144531 17.261719 C 387.019531 17.261719 386.933594 17.199219 386.894531 17.078125 C 386.5625 15.628906 385.933594 14.390625 385.007812 13.359375 C 384.078125 12.324219 382.847656 11.808594 381.320312 11.808594 C 379.753906 11.808594 378.441406 12.3125 377.390625 13.328125 C 376.335938 14.339844 375.8125 15.628906 375.8125 17.199219 C 375.8125 18.027344 375.984375 18.792969 376.335938 19.496094 C 376.6875 20.199219 377.140625 20.878906 377.699219 21.539062 C 378.257812 22.203125 378.90625 22.851562 379.648438 23.492188 C 380.410156 24.148438 381.171875 24.800781 381.941406 25.445312 C 382.816406 26.15625 383.675781 26.890625 384.511719 27.644531 C 385.332031 28.386719 386.089844 29.195312 386.769531 30.0625 C 387.417969 30.890625 387.960938 31.796875 388.382812 32.761719 C 388.792969 33.710938 389 34.742188 389 35.859375 C 389 37.308594 388.617188 38.628906 387.855469 39.828125 Z M 167.0625 34.023438 C 166.511719 35.1875 165.78125 36.191406 164.863281 37.035156 C 163.949219 37.882812 162.886719 38.539062 161.679688 39.007812 C 160.46875 39.480469 159.199219 39.714844 157.859375 39.714844 C 156.757812 39.714844 155.613281 39.445312 154.429688 38.90625 C 153.246094 38.363281 152.148438 37.652344 151.171875 36.789062 C 150.1875 35.921875 149.371094 34.933594 148.726562 33.832031 C 148.082031 32.726562 147.757812 31.609375 147.757812 30.484375 C 147.757812 28.769531 147.917969 27.292969 148.234375 26.0625 C 148.550781 24.828125 149.0625 23.785156 149.765625 22.925781 C 150.46875 22.070312 151.394531 21.363281 152.546875 20.8125 C 153.695312 20.261719 155.101562 19.808594 156.769531 19.457031 L 157.226562 19.421875 C 158.730469 19.304688 160.125 19.519531 161.417969 20.070312 C 162.6875 20.613281 163.835938 21.402344 164.792969 22.398438 C 165.757812 23.398438 166.511719 24.578125 167.0625 25.9375 C 167.613281 27.300781 167.890625 28.734375 167.890625 30.238281 C 167.890625 31.597656 167.613281 32.863281 167.0625 34.023438 Z M 157.511719 20.585938 C 157.210938 20.589844 156.917969 20.609375 156.632812 20.644531 L 156.632812 38.429688 C 156.917969 38.492188 157.210938 38.535156 157.511719 38.558594 Z M 159.605469 38.464844 C 160.210938 38.363281 160.796875 38.171875 161.34375 37.898438 C 162.261719 37.441406 163.027344 36.832031 163.648438 36.066406 C 164.273438 35.304688 164.742188 34.417969 165.058594 33.40625 C 165.375 32.398438 165.535156 31.328125 165.535156 30.199219 C 165.535156 29.050781 165.363281 27.898438 165.023438 26.75 C 164.683594 25.597656 164.179688 24.5625 163.511719 23.648438 C 162.855469 22.742188 162.015625 21.988281 161.046875 21.429688 C 160.59375 21.167969 160.109375 20.964844 159.609375 20.828125 L 159.609375 38.464844 Z M 158.996094 20.691406 C 158.707031 20.644531 158.414062 20.609375 158.121094 20.59375 L 158.121094 38.585938 L 158.175781 38.585938 C 158.460938 38.585938 158.734375 38.574219 159 38.546875 Z M 156.027344 20.738281 C 155.5 20.84375 154.988281 21.007812 154.5 21.234375 C 153.574219 21.671875 152.792969 22.269531 152.160156 23.03125 C 151.527344 23.796875 151.039062 24.675781 150.699219 25.675781 C 150.359375 26.671875 150.1875 27.734375 150.1875 28.863281 C 150.1875 30.039062 150.363281 31.199219 150.71875 32.351562 C 151.066406 33.5 151.589844 34.539062 152.28125 35.46875 C 152.960938 36.382812 153.816406 37.148438 154.800781 37.722656 C 155.1875 37.949219 155.601562 38.132812 156.03125 38.269531 Z M 156.027344 20.738281 "/>
</g>
</svg>
